<svg width="96" height="98" viewBox="0 0 96 98" fill="none" xmlns="http://www.w3.org/2000/svg">
<path fill-rule="evenodd" clip-rule="evenodd" d="M13.3898 76.0904C13.2098 76.0004 13.0598 75.8203 13.2298 75.5803C13.3498 75.4103 13.5398 75.4504 13.5398 75.4504H18.3098C18.3098 75.4504 19.2398 75.4904 19.7698 75.8504C20.2998 76.2104 20.5898 76.6104 20.7498 77.0704C20.9098 77.5404 20.8598 78.2703 20.8598 78.2703L20.3298 84.6404L19.5498 93.2103C19.5498 93.2103 19.4698 94.0704 19.7898 94.6504C20.0798 95.1604 20.6098 95.4503 20.9898 95.5803C21.3698 95.7103 22.3698 95.9104 22.3698 95.9104C22.3698 95.9104 22.6398 96.0004 22.6398 96.1704C22.6398 96.3404 22.5998 96.4404 22.4198 96.5504C22.2398 96.6604 22.0598 96.6604 22.0598 96.6604H17.0598C17.0598 96.6604 16.2498 96.6904 15.4798 95.9504C14.8098 95.3104 14.8098 94.3104 14.8098 94.3104L14.8298 93.3303L16.1798 78.9204C16.1798 78.9204 16.1798 78.0604 15.9798 77.6304C15.7398 77.1204 15.5598 76.9203 14.9798 76.6503C14.5198 76.4403 13.3598 76.0704 13.3598 76.0704" fill="#D31920"/>
<path fill-rule="evenodd" clip-rule="evenodd" d="M23.2794 76.0904C23.0994 76.0004 22.9494 75.8203 23.1194 75.5803C23.2394 75.4103 23.4294 75.4504 23.4294 75.4504H28.1994C28.1994 75.4504 29.1294 75.4904 29.6694 75.8504C30.1994 76.2104 30.4894 76.6104 30.6494 77.0704C30.7994 77.5404 30.7594 78.2703 30.7594 78.2703L30.2294 84.6404L29.4494 93.2103C29.4494 93.2103 29.3694 94.0704 29.6894 94.6504C29.9794 95.1604 30.5094 95.4503 30.8894 95.5803C31.2694 95.7103 32.2694 95.9104 32.2694 95.9104C32.2694 95.9104 32.5394 96.0004 32.5394 96.1804C32.5394 96.3604 32.4694 96.4304 32.2894 96.5404C32.1094 96.6504 31.9594 96.6704 31.9594 96.6704H26.9594C26.9594 96.6704 26.1494 96.7003 25.3794 95.9603C24.7194 95.3203 24.7194 94.3204 24.7194 94.3204L24.7394 93.3404L26.0894 78.9304C26.0894 78.9304 26.0494 78.1704 25.8394 77.7404C25.5994 77.2304 25.2794 76.9004 24.8894 76.6704C24.4494 76.4204 23.2694 76.0904 23.2694 76.0904" fill="#D31920"/>
<path fill-rule="evenodd" clip-rule="evenodd" d="M32.9197 76.0601C32.7397 75.9701 32.5897 75.7901 32.7697 75.5501C32.8897 75.3801 33.0797 75.4201 33.0797 75.4201H37.8497C37.8497 75.4201 38.7797 75.4601 39.3097 75.8201C39.8397 76.1801 40.1297 76.5801 40.2897 77.0401C40.4497 77.5101 40.3997 78.2401 40.3997 78.2401L39.8697 84.6101L39.0897 93.1801C39.0897 93.1801 39.0097 94.0401 39.3397 94.6301C39.6297 95.1401 40.1097 95.4301 40.4897 95.5701C40.8697 95.7001 41.9197 95.8901 41.9197 95.8901C41.9197 95.8901 42.1697 96.0001 42.1697 96.1801C42.1697 96.3601 42.1397 96.4601 41.9597 96.5701C41.7797 96.6801 41.6097 96.6501 41.6097 96.6501H36.6097C36.6097 96.6501 35.7997 96.6801 35.0297 95.9401C34.3597 95.3001 34.3597 94.3001 34.3597 94.3001L34.3797 93.3201L35.7397 78.9101C35.7397 78.9101 35.6997 78.1501 35.4897 77.7201C35.2497 77.2101 34.9297 76.8701 34.5397 76.6501C34.0997 76.3901 32.9197 76.0701 32.9197 76.0701" fill="#D31920"/>
<path fill-rule="evenodd" clip-rule="evenodd" d="M42.8199 69.8104C42.6699 69.6804 42.5998 69.5704 42.6698 69.3704C42.7598 69.1004 43.1099 69.1304 43.1099 69.1304L47.9299 69.1104C47.9299 69.1104 49.2398 69.1304 49.9498 69.7504C50.6598 70.3704 50.7699 70.8803 50.7899 71.3503C50.8099 71.8203 50.3899 76.9504 50.3899 76.9504C50.3899 76.9504 50.3399 77.2604 50.4299 77.2604C50.5199 77.2604 51.1899 76.9003 51.7599 76.6603C52.3399 76.4203 53.7799 75.9903 55.0499 76.0803C56.3099 76.1703 57.9999 76.3304 59.9099 77.6804C61.8199 79.0304 62.4599 80.5403 62.9699 82.0803C63.4799 83.6103 63.4599 85.5203 63.4599 85.5203C63.4599 85.5203 63.4999 87.5003 62.9299 89.5403C62.3499 91.5803 61.3999 92.8004 61.3999 92.8004C61.3999 92.8004 60.7599 93.8703 59.3599 95.0203C57.9599 96.1803 56.2699 96.7303 56.2699 96.7303C56.2699 96.7303 54.5598 97.3103 52.6998 97.2803C50.8298 97.2603 49.4199 96.8704 48.0799 96.2604C46.5699 95.5704 45.6199 94.2203 45.6199 94.2203C45.6199 94.2203 44.6399 92.9103 44.5099 92.4003C44.3799 91.8903 44.4199 91.6704 44.5299 91.5604C44.6399 91.4504 44.7999 91.5203 44.8599 91.5803C44.9299 91.6503 45.6199 92.3103 45.9699 92.5803C46.3199 92.8503 46.8799 93.3303 47.8999 93.7103C48.9199 94.0903 49.8799 94.3504 50.9399 94.4404C52.0099 94.5304 53.5599 94.2803 54.6499 93.7103C55.7399 93.1303 56.8699 92.0203 57.2699 91.4203C57.6699 90.8203 58.3599 89.9104 58.8199 87.8204C59.2899 85.7304 59.1298 84.5504 59.1298 84.5504C59.1298 84.5504 59.1099 82.8603 58.2199 80.8403C57.2099 78.5403 55.0199 78.0903 55.0199 78.0903C55.0199 78.0903 54.0499 77.8504 53.0199 78.0004C52.1299 78.1304 51.0899 78.8003 50.6899 79.3503C50.2899 79.9103 50.2498 80.3303 50.1298 81.2203C50.0798 81.6303 49.4699 87.7303 49.4699 87.7303C49.4699 87.7303 49.3998 89.0404 49.4898 89.5104C49.5798 89.9804 49.8499 90.7303 50.1599 91.0203C50.4699 91.3103 50.7399 91.3503 50.7099 91.5303C50.6899 91.7103 50.4698 91.9503 50.1298 92.0203C49.7998 92.0903 49.1099 92.1104 48.2199 91.8904C47.3299 91.6704 46.3998 91.2003 45.6698 90.1603C44.9398 89.1203 44.6899 88.2504 44.5799 87.1404C44.4699 86.0304 45.1599 79.2604 45.1599 79.2604L45.8499 72.2703C45.8499 72.2703 45.8299 71.4304 45.1799 70.8004C44.5399 70.1804 43.5099 70.0004 43.5099 70.0004C43.5099 70.0004 42.9499 69.9504 42.7999 69.8204" fill="#D31920"/>
<path fill-rule="evenodd" clip-rule="evenodd" d="M78.4793 77.1806C78.4793 77.1806 79.5193 76.9805 80.3893 77.0305C81.2593 77.0705 82.1193 77.2506 82.5893 77.4506C83.0593 77.6506 83.4593 77.7805 83.6093 77.8505C83.7593 77.9205 84.0493 77.9206 84.0993 77.6706C84.1393 77.4206 83.9193 77.2305 83.5693 76.9605C83.2093 76.6905 81.6993 75.7406 80.4193 75.4306C79.1293 75.1206 78.1093 75.0506 76.7993 75.1206C75.4893 75.1906 72.9993 75.7906 71.4893 76.6706C69.9793 77.5606 67.9993 79.3906 67.4493 80.3806C66.8493 81.4506 66.0693 82.7106 65.8693 85.2906C65.7093 87.3306 65.9593 89.3106 66.7293 90.8206C67.6393 92.6006 69.0793 94.3305 70.6393 95.2205C72.1893 96.1105 74.4193 96.9706 76.7693 96.9306C79.1293 96.8806 81.5193 95.9506 82.6993 95.0006C83.8793 94.0506 83.9093 93.9106 83.9593 93.6706C84.0493 93.2906 83.8293 93.2006 83.6493 93.2006C83.4693 93.2006 83.3393 93.3105 82.8093 93.5805C82.2793 93.8405 81.2093 94.1806 80.4393 94.2906C79.6593 94.4006 78.3093 94.5105 76.6593 93.9605C75.0193 93.4005 73.6193 92.1206 73.6193 92.1206C73.6193 92.1206 72.3093 90.8306 71.7493 89.3206C71.1893 87.8106 71.2393 85.7205 71.2393 85.7205C71.2393 85.7205 71.2793 83.1706 72.4593 81.4306C73.6393 79.7006 74.4593 79.0206 75.7893 78.2306C77.0993 77.4506 78.4793 77.1906 78.4793 77.1906" fill="#D31920"/>
<path d="M85.4001 0H11.8701V66.34H85.4001V0Z" fill="#D31920"/>
<path d="M94.67 12.1896C93.5 12.8296 92.85 13.7197 90.19 14.8297C87.53 15.9397 84.68 15.8097 84.23 16.2497C83.61 16.8597 83.03 22.1697 83.54 22.1697C84.05 22.1697 85.68 21.6497 85.43 22.2297C84.76 23.7397 84.43 25.3597 76.42 35.4297C68.41 45.4997 60.22 42.9997 57.63 39.6797C55.03 36.3597 54.6 32.7597 54.23 29.2597C56.11 28.5897 58.05 28.0297 61.62 25.3597C65.19 22.6797 67.28 18.8596 68.31 16.1896C69.34 13.5196 69.86 8.62968 69.83 6.77968C69.8 4.92968 68.62 2.95968 67.06 2.77968C65.49 2.59968 61.95 3.20968 58.32 8.30968C54.67 13.4297 53.9 18.6197 53.42 21.8897C53.34 22.5897 53.25 23.2997 53.22 23.8697C52.77 23.9497 52.32 24.0096 51.87 24.0296C46.83 24.2896 44.8 22.1197 44.17 20.8497C43.53 19.5797 44.09 18.7697 43.94 18.4197C43.8 18.0897 42.96 17.6797 39.7 19.3097C36.44 20.9397 33.9 23.8097 31.19 27.3497C23.05 37.9897 17.47 48.0597 11.7 55.0497C5.94 62.0397 2.53 62.0596 0 62.5196C0.17 64.5696 2.54 66.9796 3.17 67.5296C3.79 68.0797 4.1 68.2696 5.61 67.8296C7.11 67.3896 9.08 66.0197 12.31 62.3197C15.55 58.6197 21.94 49.3296 25.2 43.9596C28.46 38.5896 34.75 29.7496 37.24 27.0896C39.72 24.4296 42.81 22.9497 42.99 24.1697C43.03 24.4497 43.34 25.3497 44.09 26.4297C44.84 27.5097 46.08 28.5197 47.68 29.1997C49.29 29.8697 51.19 29.7997 53.1 29.6097C53.08 30.1397 52.78 31.5997 53.41 36.0697C54.05 40.5397 57.91 48.6597 64.68 48.2297C71.46 47.8097 75.11 43.2597 78.94 38.2297C82.76 33.1997 87.47 25.0497 88.94 22.9497C90.4 20.8497 92.28 19.0197 94.27 18.2497C94.64 18.0997 94.47 17.2397 94.71 15.5097C94.95 13.7797 96.15 11.3997 94.68 12.2097L94.67 12.1896ZM56.85 16.5497C58.43 13.3697 60.81 10.2197 63.53 8.92967C66.25 7.64967 67.51 9.17966 67.54 10.1097C67.58 11.0297 67.89 12.2197 65.16 15.7797C62.87 18.7697 58.63 22.3596 54.35 23.5896C54.88 21.6696 54.96 20.8197 56.85 16.5497Z" fill="white"/>
</svg>
